<svg width="96" height="96" xmlns="http://www.w3.org/2000/svg" xmlns:xlink="http://www.w3.org/1999/xlink" xml:space="preserve" overflow="hidden"><g><path d="M12 74 71 74C71.6 74 72 73.6 72 73 72 72.8 72 72.7 71.9 72.5L57.9 48.5C57.7 48.2 57.4 48 57 48L57 48C56.6 48 56.3 48.2 56.1 48.5L49.8 60.2 34.8 37.4C34.7 37.2 34.3 37 34 37L34 37C33.7 37 33.3 37.2 33.2 37.5L21.3 56.3C21.2 56.4 21.1 56.6 21 56.7L11.1 72.5C10.8 73 10.9 73.6 11.4 73.9 11.6 73.9 11.8 74 12 74ZM57 51.1 69.3 72 57.5 72 51 62.1 57 51.1C57 51.1 57 51.1 57 51.1 57 51.1 57 51.1 57 51.1ZM44.1 55.2 38 51.6C37.6 51.4 37.1 51.4 36.8 51.8L34 54.6 31.7 52.3C31.4 52 31 51.9 30.6 52.1L24.7 54.7 34 39.9C34 39.9 34 39.9 34 39.9 34 39.9 44.1 55.2 44.1 55.2ZM22.8 57.8 30.8 54.2 33.3 56.7C33.7 57.1 34.3 57.1 34.7 56.7L37.7 53.7 46.5 58.8C46.5 58.8 46.5 58.8 46.5 58.8L55.1 72 13.8 72 22.8 57.8Z"/><path d="M21 41C22.7 41 24 39.7 24 38 24 36.3 22.7 35 21 35 19.3 35 18 36.3 18 38 18 39.7 19.3 41 21 41ZM21 37C21.6 37 22 37.4 22 38 22 38.6 21.6 39 21 39 20.4 39 20 38.6 20 38 20 37.4 20.4 37 21 37Z"/><path d="M15 15 15 26 4 26 4 84 80 84 80 73 91 73 91 15 15 15ZM78 82 6 82 6 28 78 28 78 82ZM89 71 80 71 80 26 17 26 17 17 89 17 89 71Z"/></g></svg>